<svg width="468" height="74" viewBox="0 0 468 74" fill="none" xmlns="http://www.w3.org/2000/svg"><path d="M52.523 63.172l-42.148 1.601.078.704v.312c0 .651-.273 1.185-.82 1.602-.547.442-1.237.664-2.07.664-1.72 0-2.683-.86-2.891-2.578L.844 30.555a11.192 11.192 0 01-.078-1.211c0-.86.403-1.498 1.21-1.914.547-.287 1.094-.43 1.641-.43 1.537 0 2.513.768 2.93 2.305l12.617-.86c.208-3.333.313-6.289.313-8.867 0-.26-.026-1.784-.079-4.57l-14.296.937c-.287.026-.443.04-.47.04-1.848 0-2.773-.873-2.773-2.618 0-1.667.886-2.565 2.657-2.695l50.156-3.438h.351c1.901 0 2.852.95 2.852 2.852 0 1.614-.911 2.474-2.734 2.578L39.633 13.68v13.398l15.43-1.055H56c3.568 0 5.352 1.576 5.352 4.727 0 .39-.013.716-.04.977l-3.28 33.984c-.157 1.719-1.12 2.578-2.891 2.578-1.172 0-2.019-.39-2.54-1.172-.286-.39-.403-.781-.351-1.172l.04-.234.233-2.54zM18.578 33.406l-11.484.742 2.734 25.547 43.203-1.68 2.461-24.921v-.664c0-.912-.456-1.341-1.367-1.29h-.313l-14.18.938v8.594c0 .833.17 1.432.509 1.797.416.468 1.302.703 2.656.703 2.604 0 4.96-.143 7.07-.43.521-.078.886-.117 1.094-.117 1.667 0 2.5.807 2.5 2.422 0 1.432-.807 2.318-2.422 2.656-1.927.417-4.557.625-7.89.625-3.568 0-5.925-.39-7.07-1.172-1.355-.911-2.032-2.539-2.032-4.883V32.43l-9.883.625c-1.484 7.552-4.427 13.49-8.828 17.812-1.198 1.198-2.136 1.797-2.813 1.797-.494 0-.976-.208-1.445-.625a1.486 1.486 0 01-.508-1.133c0-.573.534-1.523 1.602-2.851 3.203-3.88 5.338-8.763 6.406-14.649zm15.469-5.976V14.07l-9.024.586v.586c-.13 7.917-.22 12.188-.273 12.813l9.297-.625zm63.281-2.93l16.602-1.758V4.032c0-1.98.976-2.97 2.929-2.97 2.006 0 3.008.99 3.008 2.97v18.085l15.664-1.68a4.3 4.3 0 01.508-.039c.938-.052 1.641.287 2.109 1.016.339.495.508 1.094.508 1.797 0 1.484-.885 2.318-2.656 2.5l-38.828 3.906a170.93 170.93 0 01-.703 9.805l-.117 1.25 20.117-2.305c.416-.052.703-.078.859-.078 1.511 0 2.734.508 3.672 1.523.938.99 1.406 2.266 1.406 3.829v25.937c0 1.953-.95 2.93-2.851 2.93-2.058 0-3.086-.977-3.086-2.93V44.852c0-.834-.404-1.211-1.211-1.133l-19.649 2.148c-1.302 7.943-3.75 14.909-7.343 20.899-.808 1.354-1.706 2.03-2.696 2.03-.468 0-.95-.142-1.445-.429-.651-.39-.977-.976-.977-1.758 0-.52.43-1.614 1.29-3.28 4.609-8.803 6.914-22.996 6.914-42.579 0-3.62-.105-7.591-.313-11.914v-.234c0-.782.339-1.446 1.016-1.993.573-.494 1.263-.742 2.07-.742 1.745 0 2.734.807 2.969 2.422.182 1.38.273 6.068.273 14.063 0 .546-.013 1.263-.039 2.148zM207.016 52l-31.954 2.5c-.338 1.302-1.276 1.953-2.812 1.953-1.901 0-2.852-.86-2.852-2.578V7.469c0-1.693.951-2.54 2.852-2.54 1.406 0 2.331.574 2.773 1.72l31.446-2.54h.742c3.698 0 5.547 1.901 5.547 5.704V53.25c0 1.693-.938 2.54-2.813 2.54-1.015 0-1.81-.326-2.383-.977-.364-.417-.546-.938-.546-1.563V52zm0-33.867v-7.07c0-1.172-.599-1.758-1.797-1.758h-.274l-29.804 2.539v8.945l31.875-2.656zm0 4.883l-31.875 2.656v9.297l31.875-2.5v-9.453zm0 14.336l-31.875 2.5v9.296l31.875-2.382v-9.414zm-26.211 19.296c.911 0 1.679.404 2.304 1.211.391.495.586 1.068.586 1.72 0 1.04-.547 1.965-1.64 2.773-4.011 2.994-9.388 5.846-16.133 8.554-1.875.755-3.138 1.133-3.789 1.133-.703 0-1.237-.26-1.602-.781-.26-.365-.39-.742-.39-1.133 0-.651.286-1.198.859-1.64.182-.13.781-.43 1.797-.9 4.922-2.16 10.065-5.455 15.43-9.882.859-.703 1.718-1.055 2.578-1.055zm19.961-.78c.573 0 1.536.273 2.89.82 6.797 2.734 12.37 5.611 16.719 8.632 1.328.886 1.992 1.914 1.992 3.086 0 .573-.182 1.172-.547 1.797-.547.938-1.406 1.406-2.578 1.406-.755 0-1.784-.494-3.086-1.484-5.677-4.245-10.755-7.513-15.234-9.805-1.563-.807-2.344-1.627-2.344-2.46 0-1.329.729-1.993 2.188-1.993zm87.5-13.516l.156-.664c.443-1.745 1.406-2.618 2.89-2.618 1.849 0 2.8.964 2.852 2.89l10.039-.624.313-.04c1.744-.077 2.617.717 2.617 2.384 0 1.614-.873 2.487-2.617 2.617l-11.407.664c-1.51 5.286-3.828 9.661-6.953 13.125l1.367.586c5 2.187 8.711 3.945 11.133 5.273 1.511.834 2.266 1.85 2.266 3.047 0 .651-.208 1.276-.625 1.875-.573.807-1.341 1.211-2.305 1.211-.677 0-2.018-.612-4.023-1.836-3.334-2.031-6.953-3.958-10.86-5.781-.468-.208-.82-.378-1.054-.508-4.219 3.23-9.284 5.6-15.196 7.11-2.5.624-4.14.937-4.921.937-1.537 0-2.305-.73-2.305-2.188 0-.911.482-1.575 1.445-1.992.208-.104 1.042-.325 2.5-.664 5.104-1.172 9.453-3.034 13.047-5.586a167.299 167.299 0 00-6.758-2.656c-2.943-1.068-4.414-2.383-4.414-3.945 0-1.016.56-2.422 1.68-4.219.39-.599.833-1.354 1.328-2.266l-9.453.586-.547.04c-1.615 0-2.422-.769-2.422-2.305 0-1.589.82-2.435 2.461-2.54l12.578-.82c1.537-3.15 2.552-5.43 3.047-6.836.547-1.562 1.497-2.343 2.852-2.343.546 0 1.067.117 1.562.351.938.417 1.406 1.107 1.406 2.07 0 .782-.833 2.904-2.5 6.368l10.821-.703zm-1.485 5l-11.992.742a72.226 72.226 0 01-2.031 3.554c-.573.912-.86 1.576-.86 1.993 0 .364.209.664.625.898.209.104 1.016.43 2.422.977 1.927.729 3.881 1.51 5.86 2.343 2.5-2.786 4.492-6.289 5.976-10.507zm-35.469-24.22v13.009c1.459-.703 3.269-1.641 5.43-2.813.677-.364 1.315-.547 1.914-.547.573 0 1.055.196 1.446.586.364.39.546.86.546 1.406 0 .704-.39 1.355-1.171 1.954-1.433 1.093-4.154 2.734-8.165 4.921v25.118c0 3.307-1.406 4.96-4.218 4.96-1.485 0-3.542-.585-6.172-1.757-3.333-1.459-5-2.722-5-3.79 0-1.12.599-1.679 1.797-1.679.521 0 1.172.117 1.953.352 1.901.599 3.372.898 4.414.898 1.146 0 1.719-.755 1.719-2.266V44.422c-4.427 2.161-7.344 3.242-8.75 3.242-1.771 0-2.657-.924-2.657-2.773 0-.912.469-1.641 1.407-2.188.26-.13.976-.404 2.148-.82 1.953-.703 4.57-1.758 7.852-3.164V23.875l-7.852 1.055a3.385 3.385 0 01-.469.039c-.859.052-1.523-.3-1.992-1.055-.26-.39-.39-.885-.39-1.484 0-1.433.794-2.253 2.382-2.461l8.321-1.133V4.93c0-.782.247-1.407.742-1.875.521-.521 1.185-.782 1.992-.782.938 0 1.68.352 2.227 1.055.364.443.546.977.546 1.602v13.164l5.899-.782c.182-.026.325-.039.43-.039 1.093-.104 1.823.378 2.187 1.446.13.338.195.69.195 1.054 0 1.459-.794 2.292-2.382 2.5l-6.329.86zm31.836-12.85l13.516-1.212h.352c1.692 0 2.539.808 2.539 2.422 0 1.354-.808 2.096-2.422 2.227l-2.774.234c-.651 3.1-2.057 7.5-4.218 13.203l11.953-.86c.208-.025.338-.038.39-.038 1.745 0 2.618.82 2.618 2.46 0 1.407-.86 2.162-2.579 2.266l-40.234 2.813-.508.039c-.937.052-1.614-.3-2.031-1.055a1.983 1.983 0 01-.273-1.015c0-1.615.794-2.487 2.382-2.618l9.571-.664c-1.042-3.984-2.448-8.047-4.219-12.187l-1.68.156h-.429c-1.615 0-2.422-.716-2.422-2.148 0-1.485.794-2.292 2.382-2.422l12.422-1.094V3.406c0-.86.287-1.55.86-2.07a2.956 2.956 0 011.992-.742c.625 0 1.211.195 1.758.586.703.52 1.054 1.263 1.054 2.226v6.875zm-10.429 5.546c1.536 3.49 2.929 7.578 4.179 12.266l8.086-.586c.078-.209.157-.404.235-.586.989-2.578 2.122-6.732 3.398-12.461l-15.898 1.367zm59.648 9.18l-1.25-19.297a2.354 2.354 0 01-.039-.352c-.078-1.692.886-2.539 2.891-2.539 1.406 0 2.317.612 2.734 1.836l28.242-2.148h.352c1.406 0 2.5.456 3.281 1.367.677.73 1.016 1.706 1.016 2.93v.43l-1.289 15.546 11.836-.742c2.916-.182 4.375.651 4.375 2.5 0 1.406-1.185 3.724-3.555 6.953-2.24 3.047-3.919 4.57-5.039 4.57-1.172 0-1.758-.56-1.758-1.68 0-.416.208-.976.625-1.679 1.641-2.708 2.461-4.414 2.461-5.117 0-.625-.508-.898-1.523-.82l-50.821 3.164c0 3.28-.247 5.729-.742 7.343-.521 1.797-1.536 2.696-3.047 2.696-1.953 0-2.929-.873-2.929-2.617 0-.47.182-1.263.546-2.383 1.068-3.308 1.615-6.524 1.641-9.649.026-1.432.768-2.148 2.227-2.148 1.171 0 1.862.768 2.07 2.305l7.695-.47zm5.508-.352l9.063-.547v-8.945c0-1.562.872-2.344 2.617-2.344 1.119 0 1.901.443 2.343 1.328l11.641-.859.273-4.14c-.026-1.198-.39-1.758-1.093-1.68h-.117L337.055 9.46l.82 15.195zm14.258-.898l10.781-.664.352-5.43-11.133.82v5.274zM363.07 55.71l-24.453 1.445v11.68c0 1.98-.989 2.969-2.969 2.969-1.979 0-2.968-.99-2.968-2.97v-33.28c0-1.98.976-2.97 2.929-2.97 1.511 0 2.461.613 2.852 1.837l25.156-1.836h.781c3.073 0 4.61 1.471 4.61 4.414v29.766c0 4.218-1.472 6.328-4.414 6.328-2.318 0-5.391-.847-9.219-2.54-1.25-.546-1.875-1.34-1.875-2.382 0-1.328.677-1.992 2.031-1.992.391 0 .899.09 1.524.273 1.64.521 3.047.781 4.218.781 1.198 0 1.797-.69 1.797-2.07V55.71zm0-13.867v-2.852c0-1.067-.534-1.601-1.601-1.601h-.235l-22.617 1.562v4.57l24.453-1.68zm0 4.57l-24.453 1.445v4.883l24.453-1.601v-4.727zm40.625-35.156v57.578c0 .599-.195 1.12-.586 1.562-.494.573-1.185.86-2.07.86-1.016 0-1.784-.352-2.305-1.055-.26-.39-.39-.846-.39-1.367V11.844c-1.433-.078-2.149-.886-2.149-2.422 0-1.458.795-2.266 2.383-2.422l14.649-1.445c.286-.026.572-.04.859-.04 2.708 0 4.062 1.094 4.062 3.282 0 .937-.338 2.161-1.015 3.672a84.886 84.886 0 01-6.172 11.445c4.974 5.078 7.461 10.04 7.461 14.883 0 1.77-.378 3.15-1.133 4.14-.937 1.277-2.253 1.915-3.945 1.915-2.136 0-4.479-.808-7.032-2.422-.937-.573-1.406-1.198-1.406-1.875 0-1.224.599-1.836 1.797-1.836.417 0 .99.13 1.719.39a7.18 7.18 0 002.539.47c1.224 0 1.836-.795 1.836-2.384 0-1.354-.326-2.838-.977-4.453-1.119-2.838-2.942-5.286-5.468-7.344-.417-.312-.625-.716-.625-1.21 0-1.12.533-1.85 1.601-2.188a53.17 53.17 0 003.711-8.594c.313-.937.469-1.575.469-1.914 0-.599-.404-.924-1.211-.976h-.352l-6.25.742zm39.688 1.875l16.094-1.797a6.35 6.35 0 01.781-.078c1.38 0 2.448.325 3.203.976.729.625 1.094 1.433 1.094 2.422 0 1.459-1.146 3.79-3.438 6.992-1.458 2.058-2.643 3.086-3.555 3.086-1.015 0-1.523-.481-1.523-1.445 0-.26.091-.625.273-1.094 1.068-2.76 1.602-4.297 1.602-4.61 0-.806-.391-1.158-1.172-1.054l-30 3.32c.026.886.039 1.446.039 1.68 0 2.188-.143 3.75-.429 4.688-.469 1.458-1.459 2.187-2.969 2.187-.547 0-1.016-.104-1.406-.312-.912-.495-1.368-1.302-1.368-2.422 0-.339.092-.886.274-1.64.677-2.917 1.015-5.444 1.015-7.579l-.039-1.367c0-1.563.795-2.344 2.383-2.344 1.328 0 2.07.781 2.227 2.344l11.328-1.29V3.407c0-1.719.924-2.578 2.773-2.578.99 0 1.745.326 2.266.977.365.442.547.976.547 1.601v9.727zm4.805 29.18l-.235 20.624c0 .99.3 1.667.899 2.032.572.312 2.018.469 4.336.469 4.062 0 6.588-.222 7.578-.665.729-.338 1.172-1.015 1.328-2.03.208-1.277.325-3.829.351-7.657.026-1.276.599-1.914 1.719-1.914.912 0 1.524.482 1.836 1.445.078.26.169.677.273 1.25.547 3.386.821 6.185.821 8.399 0 2.968-.977 4.804-2.93 5.507-1.823.678-5.273 1.016-10.352 1.016-5.364 0-8.671-.469-9.921-1.406-1.068-.781-1.576-2.344-1.524-4.688l.352-21.914-20.039 1.758h-.391c-1.719 0-2.578-.833-2.578-2.5 0-1.614.911-2.5 2.734-2.656l38.789-3.281h.391c1.719 0 2.578.807 2.578 2.421 0 1.615-.859 2.487-2.578 2.618l-13.437 1.172zm4.023-12.422l-22.188 2.226a3.166 3.166 0 01-.39.04c-1.016.051-1.758-.313-2.227-1.094a2.193 2.193 0 01-.312-1.172c0-1.641.846-2.552 2.539-2.735l21.992-2.304c.182-.026.365-.04.547-.04 1.667 0 2.5.769 2.5 2.305 0 1.667-.82 2.591-2.461 2.774zm-18.164 13.906c2.031 0 3.047.911 3.047 2.734 0 1.12-.469 2.917-1.406 5.39-1.876 4.897-4.519 8.907-7.93 12.032-2.682 2.448-5.469 4.35-8.36 5.703-.677.339-1.289.508-1.836.508-1.354 0-2.031-.651-2.031-1.953 0-.703.729-1.498 2.188-2.383 3.802-2.292 6.953-5.469 9.453-9.531 2.135-3.49 3.568-6.901 4.297-10.234.338-1.51 1.198-2.266 2.578-2.266z" fill="#000"/></svg>