<?xml version="1.0" standalone="no"?>
<!DOCTYPE svg PUBLIC "-//W3C//DTD SVG 20010904//EN"
 "http://www.w3.org/TR/2001/REC-SVG-20010904/DTD/svg10.dtd">
<svg version="1.0" xmlns="http://www.w3.org/2000/svg"
 width="260.000000pt" height="260.000000pt" viewBox="0 0 260.000000 260.000000"
 preserveAspectRatio="xMidYMid meet">
<metadata>
Created by potrace 1.11, written by Peter Selinger 2001-2013
</metadata>
<g transform="translate(0.000000,260.000000) scale(0.100000,-0.100000)"
fill="#000000" stroke="none">
<path d="M0 1300 l0 -1300 1300 0 1300 0 0 1300 0 1300 -1300 0 -1300 0 0
-1300z m2020 860 c27 -14 41 -64 29 -100 -15 -40 -40 -46 -296 -61 l-213 -12
0 -191 0 -192 183 14 c100 7 224 11 275 10 92 -3 94 -4 123 -36 25 -28 29 -41
29 -90 0 -117 -91 -1016 -106 -1039 -21 -33 -79 -41 -112 -16 -23 17 -27 29
-30 78 l-3 57 -87 -6 c-48 -3 -292 -13 -542 -21 -549 -19 -560 -20 -560 -46 0
-56 -92 -90 -140 -51 -21 17 -26 47 -81 548 -33 291 -57 539 -54 552 7 28 65
55 100 46 14 -3 35 -19 48 -35 l22 -28 175 12 175 12 3 193 2 193 -52 -5 c-29
-3 -129 -11 -221 -17 -149 -10 -171 -9 -192 5 -47 31 -42 104 7 126 13 6 338
32 723 59 801 56 770 54 795 41z"/>
<path d="M1178 1963 l-56 -4 -4 -187 c-2 -103 -3 -189 -1 -191 1 -2 60 0 130
5 l128 9 3 188 2 187 -72 -2 c-40 -1 -98 -3 -130 -5z"/>
<path d="M1710 1475 c-91 -7 -166 -13 -167 -14 -2 -1 -3 -64 -3 -140 0 -186
-12 -176 197 -168 l163 6 16 -24 c21 -33 14 -74 -17 -97 -57 -43 -366 -51
-445 -12 -65 32 -74 62 -74 257 l0 169 -137 -7 c-76 -4 -140 -10 -143 -14 -3
-3 -14 -40 -24 -81 -26 -102 -74 -215 -129 -297 -58 -87 -147 -173 -180 -173
-26 0 -57 28 -57 51 0 8 29 55 65 104 36 50 79 123 96 163 29 72 71 213 63
221 -5 6 -300 -11 -312 -18 -10 -6 60 -706 72 -718 8 -8 1209 38 1218 46 4 4
24 170 43 370 28 281 33 366 24 377 -13 16 -38 16 -269 -1z"/>
</g>
</svg>
